<svg width="18" height="35" viewBox="0 0 18 35" fill="none" xmlns="http://www.w3.org/2000/svg">
<path d="M1.04064 32.3151L14.2063 18.9382C14.495 18.6463 14.657 18.2523 14.657 17.8418C14.657 17.4312 14.495 17.0372 14.2063 16.7454L1.0435 3.3656C0.7549 3.07192 0.593189 2.67665 0.593189 2.2649C0.593188 1.85315 0.7549 1.45787 1.0435 1.1642C1.18448 1.01958 1.35299 0.90465 1.53908 0.826177C1.72518 0.747704 1.9251 0.707275 2.12707 0.707275C2.32904 0.707275 2.52896 0.747703 2.71505 0.826177C2.90115 0.90465 3.06966 1.01958 3.21064 1.1642L16.3734 14.5382C17.2383 15.4192 17.7229 16.6044 17.7229 17.8389C17.7229 19.0735 17.2383 20.2587 16.3734 21.1396L3.21064 34.5137C3.06961 34.6587 2.90093 34.774 2.71457 34.8527C2.52821 34.9315 2.32795 34.972 2.12564 34.972C1.92333 34.972 1.72308 34.9315 1.53672 34.8527C1.35035 34.774 1.18167 34.6587 1.04064 34.5137C0.752046 34.22 0.590333 33.8247 0.590333 33.413C0.590333 33.0012 0.752046 32.6059 1.04064 32.3123" fill="#006BFF"/>
</svg>
