<svg width="18" height="35" viewBox="0 0 18 35" fill="none" xmlns="http://www.w3.org/2000/svg">
<path d="M16.9594 32.3151L3.79374 18.9382C3.50499 18.6463 3.34303 18.2523 3.34303 17.8418C3.34303 17.4312 3.50499 17.0372 3.79374 16.7454L16.9565 3.3656C17.2451 3.07192 17.4068 2.67665 17.4068 2.2649C17.4068 1.85315 17.2451 1.45787 16.9565 1.1642C16.8155 1.01958 16.647 0.90465 16.4609 0.826177C16.2748 0.747704 16.0749 0.707275 15.8729 0.707275C15.671 0.707275 15.471 0.747703 15.2849 0.826177C15.0988 0.90465 14.9303 1.01958 14.7894 1.1642L1.62659 14.5382C0.761661 15.4192 0.277068 16.6044 0.277068 17.8389C0.277068 19.0735 0.761661 20.2587 1.62659 21.1396L14.7894 34.5137C14.9304 34.6587 15.0991 34.774 15.2854 34.8527C15.4718 34.9315 15.672 34.972 15.8744 34.972C16.0767 34.972 16.2769 34.9315 16.4633 34.8527C16.6496 34.774 16.8183 34.6587 16.9594 34.5137C17.248 34.22 17.4097 33.8247 17.4097 33.413C17.4097 33.0012 17.248 32.6059 16.9594 32.3123" fill="black"/>
</svg>
