<svg width="33" height="43" viewBox="0 0 33 43" fill="none" xmlns="http://www.w3.org/2000/svg">
<path d="M21.0835 16.2882C19.7267 17.1947 18.1317 17.6786 16.5 17.6786C14.312 17.6786 12.2135 16.8094 10.6664 15.2622C9.11919 13.715 8.25 11.6166 8.25 9.42858C8.25 7.79688 8.73386 6.20183 9.64038 4.84512C10.5469 3.48842 11.8354 2.43099 13.3429 1.80657C14.8504 1.18215 16.5092 1.01877 18.1095 1.3371C19.7098 1.65543 21.1798 2.44116 22.3336 3.59494C23.4874 4.74873 24.2732 6.21874 24.5915 7.81908C24.9098 9.41942 24.7464 11.0782 24.122 12.5857C23.4976 14.0932 22.4402 15.3817 21.0835 16.2882ZM3.19052 40.9048L4.02389 41.7382L3.19052 40.9048C2.96949 41.1258 2.66972 41.25 2.35714 41.25C2.04457 41.25 1.74479 41.1258 1.52377 40.9048L0.690392 41.7382L1.52376 40.9048C1.30274 40.6838 1.17857 40.384 1.17857 40.0714C1.17857 36.0079 2.79279 32.1109 5.66611 29.2375C8.53944 26.3642 12.4365 24.75 16.5 24.75C20.5635 24.75 24.4606 26.3642 27.3339 29.2375C30.2072 32.1109 31.8214 36.0079 31.8214 40.0714C31.8214 40.384 31.6973 40.6838 31.4762 40.9048C31.2552 41.1258 30.9554 41.25 30.6429 41.25C30.3303 41.25 30.0305 41.1258 29.8095 40.9048C29.5885 40.6838 29.4643 40.384 29.4643 40.0714C29.4643 36.6331 28.0984 33.3356 25.6671 30.9043C23.2359 28.473 19.9383 27.1071 16.5 27.1071C13.0617 27.1071 9.76414 28.473 7.33287 30.9043C4.90159 33.3356 3.53571 36.6331 3.53571 40.0714C3.53571 40.384 3.41154 40.6838 3.19052 40.9048ZM19.7739 4.52884C18.8048 3.88133 17.6655 3.53572 16.5 3.53572C14.9371 3.53572 13.4382 4.15657 12.3331 5.2617C11.228 6.36682 10.6071 7.86569 10.6071 9.42858C10.6071 10.5941 10.9528 11.7334 11.6003 12.7025C12.2478 13.6715 13.1681 14.4269 14.2449 14.8729C15.3217 15.3189 16.5065 15.4356 17.6496 15.2082C18.7927 14.9808 19.8427 14.4196 20.6669 13.5955C21.491 12.7713 22.0522 11.7213 22.2796 10.5782C22.507 9.43511 22.3903 8.25025 21.9443 7.17348C21.4983 6.0967 20.743 5.17636 19.7739 4.52884Z" fill="#FF0000" stroke="#FF0000" stroke-width="2.35714"/>
</svg>
