<svg width="31" height="43" viewBox="0 0 31 43" fill="none" xmlns="http://www.w3.org/2000/svg">
<mask id="path-1-outside-1_1_558" maskUnits="userSpaceOnUse" x="0" y="0" width="31" height="43" fill="black">
<rect fill="white" width="31" height="43"/>
<path d="M30.7988 2.47194C30.7988 2.28615 30.7988 2.10036 30.791 1.91378C30.7638 1.46167 30.5872 1.12359 30.1283 1H9.5221C9.0554 1.12519 8.80572 1.40426 8.80883 1.79736C8.81194 2.19047 9.14252 2.57798 9.58666 2.67447C9.76668 2.70345 9.94911 2.7136 10.1311 2.70477C11.7495 2.70477 13.3679 2.70477 14.9863 2.70477C15.1108 2.70477 15.2415 2.66968 15.3994 2.75659L2.85145 15.6181C2.75422 15.5128 2.79 15.4156 2.79 15.3294C2.79 11.2937 2.79 7.25852 2.79 3.22385C2.79 3.17123 2.79 3.1178 2.79 3.06438C2.77678 2.81321 2.88956 2.70078 3.13613 2.70237C3.51182 2.70237 3.88751 2.71673 4.26243 2.69679C4.71357 2.67287 5.11104 2.32682 5.17637 1.91856C5.24171 1.51031 5.02081 1.18977 4.54944 1H1.74926C1.21645 1.14751 1.04066 1.37237 1.00722 1.95684C0.996327 2.14262 1.00099 2.32841 1.00099 2.51499V40.2981C1.00099 40.4839 0.996327 40.6697 1.00722 40.8563C1.04066 41.4391 1.21645 41.664 1.74926 41.8131H30.1283C30.5872 41.6895 30.7638 41.3514 30.791 40.8993C30.8019 40.7135 30.7988 40.5278 30.7988 40.3412V2.47194ZM7.52541 40.2232C6.02161 40.2104 4.51781 40.2104 3.01401 40.2232C2.74644 40.2232 2.67255 40.1642 2.67332 39.8803C2.68421 36.4532 2.68421 33.0246 2.67332 29.5943C2.66754 29.5103 2.67964 29.426 2.70879 29.3472C2.73793 29.2685 2.78342 29.1971 2.84211 29.1382C4.86446 27.0762 6.88163 25.0113 8.89361 22.9435C9.24052 22.5886 9.56955 22.5177 9.90479 22.6995C10.0541 22.7822 10.1729 22.9127 10.2431 23.071C10.3133 23.2294 10.3311 23.4069 10.2937 23.5766C10.2447 23.8086 10.0899 23.9697 9.93357 24.1292C8.73338 25.3603 7.52697 26.5842 6.33456 27.8225C5.3755 28.8264 5.32183 30.1843 6.17744 31.1922C6.94593 32.0956 8.33669 32.2487 9.27008 31.5247C9.45404 31.3777 9.6279 31.2178 9.79045 31.0463C16.0872 24.594 22.3819 18.1407 28.6745 11.6863C28.8013 11.5563 28.9141 11.412 29.0331 11.2748L29.1187 11.3259V11.6775C29.1187 16.8184 29.1208 21.9593 29.1249 27.1001C29.1301 27.2229 29.1089 27.3453 29.0628 27.4587C29.0167 27.5721 28.9468 27.6738 28.8581 27.7564C26.8264 29.8247 24.7999 31.8979 22.7786 33.9758C22.2287 34.5396 21.7807 34.6344 21.4096 34.2661C21.0386 33.8977 21.1218 33.42 21.692 32.8308C22.8463 31.6475 24.0084 30.4714 25.1533 29.2785C26.2423 28.1423 26.1762 26.5603 25.0172 25.6107C24.6106 25.2875 24.1106 25.1121 23.5961 25.1121C23.0816 25.1121 22.5817 25.2875 22.175 25.6107C22.0048 25.7539 21.8423 25.9064 21.6881 26.0675C17.1767 30.6875 12.6697 35.3098 8.16712 39.9345C8.08797 40.0287 7.98925 40.1035 7.8782 40.1535C7.76716 40.2034 7.64661 40.2272 7.52541 40.2232ZM28.7928 40.2176H10.1179C10.2307 40.0932 10.3007 40.0111 10.3762 39.9337C14.5339 35.6694 18.6917 31.407 22.8494 27.1464C22.9964 26.9949 23.1388 26.8274 23.3394 26.7676C23.6583 26.6728 23.9617 26.7238 24.1818 27.0068C24.4019 27.2899 24.4432 27.6112 24.2339 27.9262C24.1447 28.0558 24.0436 28.1765 23.9321 28.2866C22.7522 29.5002 21.5636 30.705 20.3907 31.9242C19.3064 33.0517 19.3694 34.6352 20.5198 35.5865C20.9202 35.9058 21.4116 36.0819 21.9188 36.0878C22.426 36.0937 22.9212 35.9291 23.3285 35.6192C23.4926 35.4879 23.6485 35.3463 23.7952 35.195C25.4645 33.4881 27.1313 31.7793 28.7959 30.0687C28.8785 29.971 28.9532 29.8664 29.0191 29.7562L29.1218 29.8359C29.1218 33.2087 29.1171 36.5808 29.1296 39.9537C29.1234 40.2559 28.974 40.2176 28.7928 40.2168V40.2176ZM28.729 9.39466C22.0397 16.2323 15.3576 23.0772 8.68282 29.9292C8.4238 30.1947 8.16945 30.4618 7.74943 30.3598C7.21428 30.2306 6.9716 29.6645 7.26562 29.1876C7.35221 29.0556 7.45263 28.9337 7.56508 28.824C8.74505 27.6104 9.93435 26.4064 11.1081 25.1857C12.1869 24.0646 12.1232 22.4491 10.9813 21.5178C10.1436 20.8368 8.9185 20.8225 8.11423 21.5441C7.48185 22.1118 6.90082 22.7401 6.305 23.3493C5.12115 24.5589 3.94274 25.7733 2.68499 27.0651C2.68499 26.2796 2.68499 25.5947 2.68499 24.9122C2.68499 24.767 2.78611 24.7041 2.86467 24.6235C7.50052 19.8691 12.1372 15.1163 16.7746 10.365C16.8648 10.2698 16.9658 10.186 17.0756 10.1155C17.2213 10.0272 17.3917 9.99174 17.5594 10.0147C17.7271 10.0377 17.8825 10.1179 18.0004 10.2423C18.122 10.364 18.1991 10.5248 18.2187 10.6978C18.2384 10.8709 18.1995 11.0456 18.1085 11.1927C18.0141 11.3352 17.9045 11.4665 17.7818 11.5842C16.6089 12.7858 15.4336 13.9819 14.2668 15.1923C13.1662 16.3349 13.23 17.9432 14.396 18.8825C14.8048 19.2022 15.3054 19.3739 15.8196 19.3707C16.3337 19.3675 16.8324 19.1897 17.2374 18.865C17.3972 18.7296 17.5498 18.5856 17.6947 18.4336C21.4796 14.5552 25.2638 10.6752 29.1202 6.72109C29.1202 7.32948 29.0977 7.86132 29.1272 8.39077C29.149 8.807 29.0215 9.09484 28.729 9.39386V9.39466ZM28.1231 5.52664C24.2386 9.43133 20.4117 13.3966 16.5622 17.3388C16.3802 17.5254 16.206 17.7199 15.9244 17.7574C15.5954 17.8005 15.3379 17.6904 15.1598 17.409C15.0768 17.2882 15.032 17.1443 15.0313 16.9966C15.0306 16.8489 15.0741 16.7045 15.1559 16.5829C15.2436 16.452 15.3448 16.3312 15.4577 16.2225C16.6377 15.0089 17.827 13.8049 18.9999 12.5849C20.1099 11.4311 20.0267 9.79413 18.8272 8.87079C18.4291 8.56954 17.9471 8.40734 17.4522 8.40806C16.9573 8.40877 16.4757 8.57238 16.0784 8.87477C15.895 9.02185 15.7216 9.1817 15.5596 9.35319C11.2885 13.7267 7.01905 18.1027 2.68188 22.5472C2.68188 21.092 2.68188 19.7157 2.68188 18.3395C2.68188 18.1465 2.83122 18.0684 2.93545 17.9615C7.69731 13.0764 12.4563 8.18798 17.2125 3.29641C17.7196 2.77175 18.2135 2.56842 18.9237 2.57878C22.1906 2.61706 25.4575 2.60031 28.7181 2.58835C29.023 2.58835 29.0899 2.64895 29.135 2.98225C29.2789 4.05391 28.8643 4.78031 28.1231 5.52584V5.52664Z"/>
</mask>
<path d="M30.7988 2.47194C30.7988 2.28615 30.7988 2.10036 30.791 1.91378C30.7638 1.46167 30.5872 1.12359 30.1283 1H9.5221C9.0554 1.12519 8.80572 1.40426 8.80883 1.79736C8.81194 2.19047 9.14252 2.57798 9.58666 2.67447C9.76668 2.70345 9.94911 2.7136 10.1311 2.70477C11.7495 2.70477 13.3679 2.70477 14.9863 2.70477C15.1108 2.70477 15.2415 2.66968 15.3994 2.75659L2.85145 15.6181C2.75422 15.5128 2.79 15.4156 2.79 15.3294C2.79 11.2937 2.79 7.25852 2.79 3.22385C2.79 3.17123 2.79 3.1178 2.79 3.06438C2.77678 2.81321 2.88956 2.70078 3.13613 2.70237C3.51182 2.70237 3.88751 2.71673 4.26243 2.69679C4.71357 2.67287 5.11104 2.32682 5.17637 1.91856C5.24171 1.51031 5.02081 1.18977 4.54944 1H1.74926C1.21645 1.14751 1.04066 1.37237 1.00722 1.95684C0.996327 2.14262 1.00099 2.32841 1.00099 2.51499V40.2981C1.00099 40.4839 0.996327 40.6697 1.00722 40.8563C1.04066 41.4391 1.21645 41.664 1.74926 41.8131H30.1283C30.5872 41.6895 30.7638 41.3514 30.791 40.8993C30.8019 40.7135 30.7988 40.5278 30.7988 40.3412V2.47194ZM7.52541 40.2232C6.02161 40.2104 4.51781 40.2104 3.01401 40.2232C2.74644 40.2232 2.67255 40.1642 2.67332 39.8803C2.68421 36.4532 2.68421 33.0246 2.67332 29.5943C2.66754 29.5103 2.67964 29.426 2.70879 29.3472C2.73793 29.2685 2.78342 29.1971 2.84211 29.1382C4.86446 27.0762 6.88163 25.0113 8.89361 22.9435C9.24052 22.5886 9.56955 22.5177 9.90479 22.6995C10.0541 22.7822 10.1729 22.9127 10.2431 23.071C10.3133 23.2294 10.3311 23.4069 10.2937 23.5766C10.2447 23.8086 10.0899 23.9697 9.93357 24.1292C8.73338 25.3603 7.52697 26.5842 6.33456 27.8225C5.3755 28.8264 5.32183 30.1843 6.17744 31.1922C6.94593 32.0956 8.33669 32.2487 9.27008 31.5247C9.45404 31.3777 9.6279 31.2178 9.79045 31.0463C16.0872 24.594 22.3819 18.1407 28.6745 11.6863C28.8013 11.5563 28.9141 11.412 29.0331 11.2748L29.1187 11.3259V11.6775C29.1187 16.8184 29.1208 21.9593 29.1249 27.1001C29.1301 27.2229 29.1089 27.3453 29.0628 27.4587C29.0167 27.5721 28.9468 27.6738 28.8581 27.7564C26.8264 29.8247 24.7999 31.8979 22.7786 33.9758C22.2287 34.5396 21.7807 34.6344 21.4096 34.2661C21.0386 33.8977 21.1218 33.42 21.692 32.8308C22.8463 31.6475 24.0084 30.4714 25.1533 29.2785C26.2423 28.1423 26.1762 26.5603 25.0172 25.6107C24.6106 25.2875 24.1106 25.1121 23.5961 25.1121C23.0816 25.1121 22.5817 25.2875 22.175 25.6107C22.0048 25.7539 21.8423 25.9064 21.6881 26.0675C17.1767 30.6875 12.6697 35.3098 8.16712 39.9345C8.08797 40.0287 7.98925 40.1035 7.8782 40.1535C7.76716 40.2034 7.64661 40.2272 7.52541 40.2232ZM28.7928 40.2176H10.1179C10.2307 40.0932 10.3007 40.0111 10.3762 39.9337C14.5339 35.6694 18.6917 31.407 22.8494 27.1464C22.9964 26.9949 23.1388 26.8274 23.3394 26.7676C23.6583 26.6728 23.9617 26.7238 24.1818 27.0068C24.4019 27.2899 24.4432 27.6112 24.2339 27.9262C24.1447 28.0558 24.0436 28.1765 23.9321 28.2866C22.7522 29.5002 21.5636 30.705 20.3907 31.9242C19.3064 33.0517 19.3694 34.6352 20.5198 35.5865C20.9202 35.9058 21.4116 36.0819 21.9188 36.0878C22.426 36.0937 22.9212 35.9291 23.3285 35.6192C23.4926 35.4879 23.6485 35.3463 23.7952 35.195C25.4645 33.4881 27.1313 31.7793 28.7959 30.0687C28.8785 29.971 28.9532 29.8664 29.0191 29.7562L29.1218 29.8359C29.1218 33.2087 29.1171 36.5808 29.1296 39.9537C29.1234 40.2559 28.974 40.2176 28.7928 40.2168V40.2176ZM28.729 9.39466C22.0397 16.2323 15.3576 23.0772 8.68282 29.9292C8.4238 30.1947 8.16945 30.4618 7.74943 30.3598C7.21428 30.2306 6.9716 29.6645 7.26562 29.1876C7.35221 29.0556 7.45263 28.9337 7.56508 28.824C8.74505 27.6104 9.93435 26.4064 11.1081 25.1857C12.1869 24.0646 12.1232 22.4491 10.9813 21.5178C10.1436 20.8368 8.9185 20.8225 8.11423 21.5441C7.48185 22.1118 6.90082 22.7401 6.305 23.3493C5.12115 24.5589 3.94274 25.7733 2.68499 27.0651C2.68499 26.2796 2.68499 25.5947 2.68499 24.9122C2.68499 24.767 2.78611 24.7041 2.86467 24.6235C7.50052 19.8691 12.1372 15.1163 16.7746 10.365C16.8648 10.2698 16.9658 10.186 17.0756 10.1155C17.2213 10.0272 17.3917 9.99174 17.5594 10.0147C17.7271 10.0377 17.8825 10.1179 18.0004 10.2423C18.122 10.364 18.1991 10.5248 18.2187 10.6978C18.2384 10.8709 18.1995 11.0456 18.1085 11.1927C18.0141 11.3352 17.9045 11.4665 17.7818 11.5842C16.6089 12.7858 15.4336 13.9819 14.2668 15.1923C13.1662 16.3349 13.23 17.9432 14.396 18.8825C14.8048 19.2022 15.3054 19.3739 15.8196 19.3707C16.3337 19.3675 16.8324 19.1897 17.2374 18.865C17.3972 18.7296 17.5498 18.5856 17.6947 18.4336C21.4796 14.5552 25.2638 10.6752 29.1202 6.72109C29.1202 7.32948 29.0977 7.86132 29.1272 8.39077C29.149 8.807 29.0215 9.09484 28.729 9.39386V9.39466ZM28.1231 5.52664C24.2386 9.43133 20.4117 13.3966 16.5622 17.3388C16.3802 17.5254 16.206 17.7199 15.9244 17.7574C15.5954 17.8005 15.3379 17.6904 15.1598 17.409C15.0768 17.2882 15.032 17.1443 15.0313 16.9966C15.0306 16.8489 15.0741 16.7045 15.1559 16.5829C15.2436 16.452 15.3448 16.3312 15.4577 16.2225C16.6377 15.0089 17.827 13.8049 18.9999 12.5849C20.1099 11.4311 20.0267 9.79413 18.8272 8.87079C18.4291 8.56954 17.9471 8.40734 17.4522 8.40806C16.9573 8.40877 16.4757 8.57238 16.0784 8.87477C15.895 9.02185 15.7216 9.1817 15.5596 9.35319C11.2885 13.7267 7.01905 18.1027 2.68188 22.5472C2.68188 21.092 2.68188 19.7157 2.68188 18.3395C2.68188 18.1465 2.83122 18.0684 2.93545 17.9615C7.69731 13.0764 12.4563 8.18798 17.2125 3.29641C17.7196 2.77175 18.2135 2.56842 18.9237 2.57878C22.1906 2.61706 25.4575 2.60031 28.7181 2.58835C29.023 2.58835 29.0899 2.64895 29.135 2.98225C29.2789 4.05391 28.8643 4.78031 28.1231 5.52584V5.52664Z" fill="#FF0000"/>
<path d="M30.7988 2.47194C30.7988 2.28615 30.7988 2.10036 30.791 1.91378C30.7638 1.46167 30.5872 1.12359 30.1283 1H9.5221C9.0554 1.12519 8.80572 1.40426 8.80883 1.79736C8.81194 2.19047 9.14252 2.57798 9.58666 2.67447C9.76668 2.70345 9.94911 2.7136 10.1311 2.70477C11.7495 2.70477 13.3679 2.70477 14.9863 2.70477C15.1108 2.70477 15.2415 2.66968 15.3994 2.75659L2.85145 15.6181C2.75422 15.5128 2.79 15.4156 2.79 15.3294C2.79 11.2937 2.79 7.25852 2.79 3.22385C2.79 3.17123 2.79 3.1178 2.79 3.06438C2.77678 2.81321 2.88956 2.70078 3.13613 2.70237C3.51182 2.70237 3.88751 2.71673 4.26243 2.69679C4.71357 2.67287 5.11104 2.32682 5.17637 1.91856C5.24171 1.51031 5.02081 1.18977 4.54944 1H1.74926C1.21645 1.14751 1.04066 1.37237 1.00722 1.95684C0.996327 2.14262 1.00099 2.32841 1.00099 2.51499V40.2981C1.00099 40.4839 0.996327 40.6697 1.00722 40.8563C1.04066 41.4391 1.21645 41.664 1.74926 41.8131H30.1283C30.5872 41.6895 30.7638 41.3514 30.791 40.8993C30.8019 40.7135 30.7988 40.5278 30.7988 40.3412V2.47194ZM7.52541 40.2232C6.02161 40.2104 4.51781 40.2104 3.01401 40.2232C2.74644 40.2232 2.67255 40.1642 2.67332 39.8803C2.68421 36.4532 2.68421 33.0246 2.67332 29.5943C2.66754 29.5103 2.67964 29.426 2.70879 29.3472C2.73793 29.2685 2.78342 29.1971 2.84211 29.1382C4.86446 27.0762 6.88163 25.0113 8.89361 22.9435C9.24052 22.5886 9.56955 22.5177 9.90479 22.6995C10.0541 22.7822 10.1729 22.9127 10.2431 23.071C10.3133 23.2294 10.3311 23.4069 10.2937 23.5766C10.2447 23.8086 10.0899 23.9697 9.93357 24.1292C8.73338 25.3603 7.52697 26.5842 6.33456 27.8225C5.3755 28.8264 5.32183 30.1843 6.17744 31.1922C6.94593 32.0956 8.33669 32.2487 9.27008 31.5247C9.45404 31.3777 9.6279 31.2178 9.79045 31.0463C16.0872 24.594 22.3819 18.1407 28.6745 11.6863C28.8013 11.5563 28.9141 11.412 29.0331 11.2748L29.1187 11.3259V11.6775C29.1187 16.8184 29.1208 21.9593 29.1249 27.1001C29.1301 27.2229 29.1089 27.3453 29.0628 27.4587C29.0167 27.5721 28.9468 27.6738 28.8581 27.7564C26.8264 29.8247 24.7999 31.8979 22.7786 33.9758C22.2287 34.5396 21.7807 34.6344 21.4096 34.2661C21.0386 33.8977 21.1218 33.42 21.692 32.8308C22.8463 31.6475 24.0084 30.4714 25.1533 29.2785C26.2423 28.1423 26.1762 26.5603 25.0172 25.6107C24.6106 25.2875 24.1106 25.1121 23.5961 25.1121C23.0816 25.1121 22.5817 25.2875 22.175 25.6107C22.0048 25.7539 21.8423 25.9064 21.6881 26.0675C17.1767 30.6875 12.6697 35.3098 8.16712 39.9345C8.08797 40.0287 7.98925 40.1035 7.8782 40.1535C7.76716 40.2034 7.64661 40.2272 7.52541 40.2232ZM28.7928 40.2176H10.1179C10.2307 40.0932 10.3007 40.0111 10.3762 39.9337C14.5339 35.6694 18.6917 31.407 22.8494 27.1464C22.9964 26.9949 23.1388 26.8274 23.3394 26.7676C23.6583 26.6728 23.9617 26.7238 24.1818 27.0068C24.4019 27.2899 24.4432 27.6112 24.2339 27.9262C24.1447 28.0558 24.0436 28.1765 23.9321 28.2866C22.7522 29.5002 21.5636 30.705 20.3907 31.9242C19.3064 33.0517 19.3694 34.6352 20.5198 35.5865C20.9202 35.9058 21.4116 36.0819 21.9188 36.0878C22.426 36.0937 22.9212 35.9291 23.3285 35.6192C23.4926 35.4879 23.6485 35.3463 23.7952 35.195C25.4645 33.4881 27.1313 31.7793 28.7959 30.0687C28.8785 29.971 28.9532 29.8664 29.0191 29.7562L29.1218 29.8359C29.1218 33.2087 29.1171 36.5808 29.1296 39.9537C29.1234 40.2559 28.974 40.2176 28.7928 40.2168V40.2176ZM28.729 9.39466C22.0397 16.2323 15.3576 23.0772 8.68282 29.9292C8.4238 30.1947 8.16945 30.4618 7.74943 30.3598C7.21428 30.2306 6.9716 29.6645 7.26562 29.1876C7.35221 29.0556 7.45263 28.9337 7.56508 28.824C8.74505 27.6104 9.93435 26.4064 11.1081 25.1857C12.1869 24.0646 12.1232 22.4491 10.9813 21.5178C10.1436 20.8368 8.9185 20.8225 8.11423 21.5441C7.48185 22.1118 6.90082 22.7401 6.305 23.3493C5.12115 24.5589 3.94274 25.7733 2.68499 27.0651C2.68499 26.2796 2.68499 25.5947 2.68499 24.9122C2.68499 24.767 2.78611 24.7041 2.86467 24.6235C7.50052 19.8691 12.1372 15.1163 16.7746 10.365C16.8648 10.2698 16.9658 10.186 17.0756 10.1155C17.2213 10.0272 17.3917 9.99174 17.5594 10.0147C17.7271 10.0377 17.8825 10.1179 18.0004 10.2423C18.122 10.364 18.1991 10.5248 18.2187 10.6978C18.2384 10.8709 18.1995 11.0456 18.1085 11.1927C18.0141 11.3352 17.9045 11.4665 17.7818 11.5842C16.6089 12.7858 15.4336 13.9819 14.2668 15.1923C13.1662 16.3349 13.23 17.9432 14.396 18.8825C14.8048 19.2022 15.3054 19.3739 15.8196 19.3707C16.3337 19.3675 16.8324 19.1897 17.2374 18.865C17.3972 18.7296 17.5498 18.5856 17.6947 18.4336C21.4796 14.5552 25.2638 10.6752 29.1202 6.72109C29.1202 7.32948 29.0977 7.86132 29.1272 8.39077C29.149 8.807 29.0215 9.09484 28.729 9.39386V9.39466ZM28.1231 5.52664C24.2386 9.43133 20.4117 13.3966 16.5622 17.3388C16.3802 17.5254 16.206 17.7199 15.9244 17.7574C15.5954 17.8005 15.3379 17.6904 15.1598 17.409C15.0768 17.2882 15.032 17.1443 15.0313 16.9966C15.0306 16.8489 15.0741 16.7045 15.1559 16.5829C15.2436 16.452 15.3448 16.3312 15.4577 16.2225C16.6377 15.0089 17.827 13.8049 18.9999 12.5849C20.1099 11.4311 20.0267 9.79413 18.8272 8.87079C18.4291 8.56954 17.9471 8.40734 17.4522 8.40806C16.9573 8.40877 16.4757 8.57238 16.0784 8.87477C15.895 9.02185 15.7216 9.1817 15.5596 9.35319C11.2885 13.7267 7.01905 18.1027 2.68188 22.5472C2.68188 21.092 2.68188 19.7157 2.68188 18.3395C2.68188 18.1465 2.83122 18.0684 2.93545 17.9615C7.69731 13.0764 12.4563 8.18798 17.2125 3.29641C17.7196 2.77175 18.2135 2.56842 18.9237 2.57878C22.1906 2.61706 25.4575 2.60031 28.7181 2.58835C29.023 2.58835 29.0899 2.64895 29.135 2.98225C29.2789 4.05391 28.8643 4.78031 28.1231 5.52584V5.52664Z" stroke="#006BFF" stroke-width="0.4" mask="url(#path-1-outside-1_1_558)"/>
</svg>
